# Blender v3.4.1 OBJ File: 'Allprops1.blend'
# www.blender.org
mtllib Ice2.mtl
o Ice2_Plane.002
v 20.523708 0.000000 -9.021837
v -9.777365 0.041289 -29.606850
v -43.395164 0.000000 -2.006034
v -46.724487 0.000000 -21.520329
v 7.805518 0.000000 -17.425861
v 15.615567 0.000000 34.305832
v 4.706409 0.000000 38.389137
v 26.531197 0.000000 27.847206
v 17.840836 0.000000 10.987757
v -34.608437 0.000000 -27.749731
v -2.140690 0.000000 12.175007
v -1.256606 0.000000 23.745321
v 5.930019 0.000000 4.504346
v 8.241935 0.000000 19.993383
v -14.184185 0.000000 10.147719
v -16.315620 0.000000 22.178427
v -1.669204 0.000000 -9.114567
v -12.260240 0.000000 -11.516086
v -21.699497 0.000000 -14.600602
v 23.339277 0.000000 23.008394
v -27.323967 1.336643 -31.625570
v -0.137324 0.000000 32.517876
v 11.420645 0.000000 29.383034
v -15.921014 0.000000 30.534925
v -25.860773 0.000000 28.081139
v -22.043625 3.613989 -40.415920
v -30.105665 0.000000 -17.325157
v -27.933191 0.000000 18.309336
v -27.660231 0.000000 5.975362
v 20.523708 -0.740000 -9.021837
v -9.882522 -0.691024 -29.622953
v -43.395164 -0.740000 -2.006034
v -46.724487 -0.740000 -21.520329
v 7.805518 -0.740000 -17.425861
v 15.615567 -0.740000 34.305832
v 4.706409 -0.740000 38.389137
v 26.531197 -0.740000 27.847206
v 17.840836 -0.740000 10.987757
v -34.549995 -0.735454 -27.807106
v -2.140690 -0.740000 12.175007
v -1.256606 -0.740000 23.745321
v 5.930019 -0.740000 4.504346
v 8.241935 -0.740000 19.993383
v -14.184185 -0.740000 10.147719
v -16.315620 -0.740000 22.178427
v -1.689434 -0.739717 -9.117665
v -12.284937 -0.739294 -11.536918
v -21.665087 -0.737836 -14.645472
v 23.339277 -0.740000 23.008394
v -27.256535 0.604732 -31.711351
v -0.137324 -0.740000 32.517876
v 11.420645 -0.740000 29.383034
v -15.921014 -0.740000 30.534925
v -25.860773 -0.740000 28.081139
v -22.038086 2.877400 -40.486664
v -30.080671 -0.739170 -17.349693
v -27.933191 -0.740000 18.309336
v -27.660231 -0.740000 5.975362
vt 0.430203 0.978822
vt 0.463943 0.969665
vt 0.460405 0.991601
vt 0.426900 0.997411
vt 0.390774 0.980353
vt 0.389876 0.997252
vt 0.429431 0.840615
vt 0.406328 0.862510
vt 0.395916 0.798894
vt 0.411295 0.752592
vt 0.407309 0.908042
vt 0.350570 0.895529
vt 0.370187 0.855576
vt 0.448827 0.818907
vt 0.438049 0.767478
vt 0.424355 0.950476
vt 0.438979 0.915449
vt 0.453821 0.945913
vt 0.386881 0.941962
vt 0.466321 0.892570
vt 0.466102 0.799689
vt 0.462444 0.766736
vt 0.489453 0.919755
vt 0.500781 0.941395
vt 0.494188 0.862170
vt 0.513039 0.892876
vt 0.501932 0.764648
vt 0.522216 0.818860
vt 0.522216 0.920561
vt 0.430203 0.978822
vt 0.426900 0.997411
vt 0.460405 0.991601
vt 0.463943 0.969665
vt 0.390774 0.980353
vt 0.389876 0.997252
vt 0.429431 0.840615
vt 0.411295 0.752592
vt 0.395916 0.798894
vt 0.406328 0.862510
vt 0.370187 0.855576
vt 0.350570 0.895529
vt 0.407309 0.908042
vt 0.448827 0.818907
vt 0.438049 0.767478
vt 0.424355 0.950476
vt 0.453821 0.945913
vt 0.438979 0.915449
vt 0.386881 0.941962
vt 0.466321 0.892570
vt 0.466102 0.799689
vt 0.462444 0.766736
vt 0.500781 0.941395
vt 0.489453 0.919755
vt 0.513039 0.892876
vt 0.494188 0.862170
vt 0.522216 0.818860
vt 0.501932 0.764648
vt 0.522216 0.920561
vn 0.0000 1.0000 0.0000
vn -0.2890 0.8003 0.5253
vn -0.2074 0.5968 0.7751
vn 0.3133 0.6878 0.6548
vn 0.6026 0.7249 -0.3339
vn 0.7973 0.5748 0.1839
vn 0.0334 0.9990 0.0282
vn 0.1015 0.9380 -0.3315
vn 0.7002 0.5784 -0.4186
vn -0.1413 0.6329 -0.7612
vn 0.7249 0.6048 -0.3297
vn -0.0544 0.5961 -0.8011
vn -0.0465 0.9971 0.0606
vn -0.5164 0.7732 -0.3682
vn -0.3576 0.8749 0.3266
vn -0.2653 0.9248 -0.2727
vn 0.6248 0.7752 -0.0931
vn 0.2470 0.9035 0.3502
vn -0.2226 0.9650 -0.1387
vn -0.8094 0.5421 -0.2259
vn 0.3261 0.9128 -0.2458
vn -0.1313 0.6942 0.7077
vn -0.4538 0.8486 0.2718
vn -0.7281 0.6821 0.0682
vn -0.5587 0.5688 -0.6036
vn -0.6325 0.6186 0.4662
vn -0.5723 0.6048 0.5537
vn 0.0000 -1.0000 -0.0000
vn 0.3133 -0.6878 0.6548
vn -0.2074 -0.5968 0.7751
vn -0.2890 -0.8003 0.5253
vn 0.6026 -0.7249 -0.3339
vn 0.7973 -0.5748 0.1839
vn -0.0335 -0.9990 -0.0281
vn -0.1150 -0.5001 -0.8583
vn 0.5269 -0.7191 -0.4530
vn 0.0560 -0.9439 -0.3254
vn -0.0547 -0.5894 -0.8060
vn 0.7249 -0.6048 -0.3297
vn 0.0469 -0.9971 -0.0608
vn -0.3635 -0.7518 -0.5502
vn -0.2653 -0.9248 -0.2727
vn -0.3576 -0.8749 0.3266
vn 0.6248 -0.7752 -0.0931
vn 0.2470 -0.9035 0.3501
vn -0.1600 -0.9691 -0.1875
vn -0.7247 -0.6147 -0.3114
vn -0.1313 -0.6942 0.7077
vn 0.3261 -0.9128 -0.2458
vn -0.7281 -0.6821 0.0682
vn -0.4538 -0.8486 0.2718
vn -0.6325 -0.6186 0.4662
vn -0.5681 -0.5482 -0.6137
vn -0.5723 -0.6048 0.5537
usemtl Material
s 1
f 23/1/1 22/2/2 7/3/3 6/4/4
f 20/5/5 23/1/1 6/4/4 8/6/6
f 18/7/7 17/8/8 2/9/9 26/10/10
f 17/8/8 13/11/1 1/12/11 5/13/12
f 19/14/13 18/7/7 26/10/10 21/15/14
f 14/16/1 13/11/1 11/17/15 12/18/16
f 9/19/17 1/12/11 13/11/1 14/16/1
f 11/17/15 18/7/7 19/14/13 15/20/18
f 11/17/15 13/11/1 17/8/8 18/7/7
f 27/21/19 19/14/13 21/15/14 10/22/20
f 14/16/1 12/18/16 22/2/2 23/1/1
f 9/19/17 14/16/1 23/1/1 20/5/5
f 12/18/16 16/23/21 24/24/22 22/2/2
f 16/23/21 15/20/18 29/25/23 28/26/24
f 15/20/18 19/14/13 27/21/19 29/25/23
f 29/25/23 27/21/19 4/27/25 3/28/26
f 24/24/22 16/23/21 28/26/24 25/29/27
f 52/30/28 35/31/29 36/32/30 51/33/31
f 49/34/32 37/35/33 35/31/29 52/30/28
f 47/36/34 55/37/35 31/38/36 46/39/37
f 46/39/37 34/40/38 30/41/39 42/42/28
f 48/43/40 50/44/41 55/37/35 47/36/34
f 43/45/28 41/46/42 40/47/43 42/42/28
f 38/48/44 43/45/28 42/42/28 30/41/39
f 40/47/43 44/49/45 48/43/40 47/36/34
f 40/47/43 47/36/34 46/39/37 42/42/28
f 56/50/46 39/51/47 50/44/41 48/43/40
f 43/45/28 52/30/28 51/33/31 41/46/42
f 38/48/44 49/34/32 52/30/28 43/45/28
f 41/46/42 51/33/31 53/52/48 45/53/49
f 45/53/49 57/54/50 58/55/51 44/49/45
f 44/49/45 58/55/51 56/50/46 48/43/40
f 58/55/51 32/56/52 33/57/53 56/50/46
f 53/52/48 54/58/54 57/54/50 45/53/49
f 3/28/26 4/27/25 33/57/53 32/56/52
f 29/25/23 3/28/26 32/56/52 58/55/51
f 4/27/25 27/21/19 56/50/46 33/57/53
f 17/8/8 5/13/12 34/40/38 46/39/37
f 5/13/12 1/12/11 30/41/39 34/40/38
f 20/5/5 8/6/6 37/35/33 49/34/32
f 8/6/6 6/4/4 35/31/29 37/35/33
f 7/3/3 22/2/2 51/33/31 36/32/30
f 6/4/4 7/3/3 36/32/30 35/31/29
f 27/21/19 10/22/20 39/51/47 56/50/46
f 1/12/11 9/19/17 38/48/44 30/41/39
f 2/9/9 17/8/8 46/39/37 31/38/36
f 12/18/16 11/17/15 40/47/43 41/46/42
f 15/20/18 16/23/21 45/53/49 44/49/45
f 11/17/15 15/20/18 44/49/45 40/47/43
f 16/23/21 12/18/16 41/46/42 45/53/49
f 10/22/20 21/15/14 50/44/41 39/51/47
f 22/2/2 24/24/22 53/52/48 51/33/31
f 9/19/17 20/5/5 49/34/32 38/48/44
f 21/15/14 26/10/10 55/37/35 50/44/41
f 24/24/22 25/29/27 54/58/54 53/52/48
f 25/29/27 28/26/24 57/54/50 54/58/54
f 26/10/10 2/9/9 31/38/36 55/37/35
f 28/26/24 29/25/23 58/55/51 57/54/50
