# Blender v3.4.1 OBJ File: 'Allprops1.blend'
# www.blender.org
mtllib Ice3.mtl
o Ice3_Plane.003
v 70.324486 0.000000 -81.118385
v 38.542084 0.000000 -99.254448
v 5.276289 0.000000 -70.149948
v 1.946966 0.000000 -89.664238
v 60.764923 0.000000 -101.220978
v 14.063017 0.000000 -95.893639
v 33.402954 0.000000 -82.423424
v 47.700768 0.000000 -77.648651
v 28.446140 1.435937 -70.236359
v 47.530216 0.000000 -91.872101
v 33.228714 0.000000 -91.793274
v 25.037376 0.000000 -90.120102
v 21.347486 0.000000 -99.769478
v 26.627829 0.000000 -108.559830
v 18.259029 0.000000 -86.638580
v 21.011223 4.614907 -62.168549
v 6.327780 0.000000 -104.733917
v 13.612249 0.000000 -108.609756
v -9.517763 0.000000 -94.222504
v -2.335039 0.000000 -107.206657
v 3.943201 0.000000 -115.378082
v -5.650145 0.000000 -75.436920
v 70.324486 -0.770000 -81.118385
v 38.542084 -0.770000 -99.254448
v 5.336607 -0.766163 -70.102448
v 1.968882 -0.769495 -89.646980
v 60.764923 -0.770000 -101.220978
v 14.063017 -0.770000 -95.893639
v 33.379978 -0.769252 -82.398453
v 47.700768 -0.770000 -77.648651
v 28.376823 0.675585 -70.136551
v 47.530216 -0.770000 -91.872101
v 33.220078 -0.769894 -91.783882
v 25.011866 -0.768830 -90.086197
v 21.347486 -0.770000 -99.769478
v 26.627829 -0.770000 -108.559830
v 18.261452 -0.767197 -86.572983
v 21.021900 3.850251 -62.078621
v 6.327780 -0.770000 -104.733917
v 13.612249 -0.770000 -108.609756
v -9.517763 -0.770000 -94.222504
v -2.335039 -0.770000 -107.206657
v 3.943201 -0.770000 -115.378082
v -5.650145 -0.770000 -75.436920
vt 0.000000 0.000000
vt 0.000000 0.000000
vt 0.000000 0.000000
vt 0.000000 0.000000
vt 0.000000 0.000000
vt 0.000000 0.000000
vt 0.000000 0.000000
vt 0.000000 0.000000
vt 0.000000 0.000000
vt 0.000000 0.000000
vt 0.000000 0.000000
vt 0.000000 0.000000
vt 0.000000 0.000000
vt 0.000000 0.000000
vt 0.000000 0.000000
vt 0.000000 0.000000
vt 0.000000 0.000000
vt 0.000000 0.000000
vt 0.000000 0.000000
vt 0.000000 0.000000
vt 0.000000 0.000000
vt 0.000000 0.000000
vt 0.000000 0.000000
vt 0.000000 0.000000
vt 0.000000 0.000000
vt 0.000000 0.000000
vt 0.000000 0.000000
vt 0.000000 0.000000
vt 0.000000 0.000000
vt 0.000000 0.000000
vt 0.000000 0.000000
vt 0.000000 0.000000
vt 0.000000 0.000000
vt 0.000000 0.000000
vt 0.000000 0.000000
vt 0.000000 0.000000
vt 0.000000 0.000000
vt 0.000000 0.000000
vt 0.000000 0.000000
vt 0.000000 0.000000
vt 0.000000 0.000000
vt 0.000000 0.000000
vt 0.000000 0.000000
vt 0.000000 0.000000
vn 0.0112 0.9999 -0.0122
vn 0.0178 0.8717 -0.4897
vn 0.4438 0.7044 -0.5540
vn -0.1497 0.5712 -0.8070
vn -0.0633 0.6622 0.7466
vn 0.7299 0.5635 0.3869
vn 0.2082 0.5689 -0.7956
vn 0.0331 0.9985 -0.0440
vn -0.0307 0.9384 -0.3443
vn 0.2234 0.8959 0.3839
vn 0.6954 0.6442 0.3186
vn -0.2227 0.9445 -0.2414
vn -0.5619 0.7440 0.3615
vn 0.1278 0.7042 0.6984
vn 0.3226 0.9187 -0.2277
vn -0.3825 0.6947 0.6092
vn 0.4891 0.6810 -0.5450
vn 0.0591 0.9620 0.2667
vn -0.6048 0.6906 -0.3965
vn -0.7623 0.6367 -0.1161
vn -0.1238 0.5797 -0.8054
vn -0.6176 0.6225 0.4806
vn -0.0112 -0.9999 0.0122
vn -0.1497 -0.5712 -0.8070
vn 0.4438 -0.7044 -0.5540
vn 0.0178 -0.8717 -0.4897
vn 0.2082 -0.5689 -0.7956
vn 0.7299 -0.5635 0.3869
vn -0.0639 -0.6537 0.7541
vn -0.0331 -0.9985 0.0440
vn -0.0307 -0.9384 -0.3442
vn 0.1471 -0.8938 0.4236
vn 0.5609 -0.6776 0.4757
vn -0.1947 -0.9772 -0.0843
vn -0.5663 -0.7393 0.3643
vn 0.1567 -0.4663 0.8706
vn -0.2496 -0.7139 0.6542
vn 0.3622 -0.9116 -0.1942
vn 0.0597 -0.9613 0.2691
vn 0.4891 -0.6810 -0.5450
vn -0.7623 -0.6368 -0.1161
vn -0.6048 -0.6906 -0.3964
vn -0.1238 -0.5797 -0.8054
vn -0.6210 -0.6171 0.4833
usemtl None
s 1
f 11/1/1 10/2/2 2/3/3 14/4/4
f 10/2/2 8/5/5 1/6/6 5/7/7
f 12/8/8 11/1/1 14/4/4 13/9/9
f 7/10/10 11/1/1 12/8/8 9/11/11
f 7/10/10 8/5/5 10/2/2 11/1/1
f 15/12/12 12/8/8 13/9/9 6/13/13
f 9/11/11 12/8/8 15/12/12 16/14/14
f 16/14/14 15/12/12 4/15/15 3/16/16
f 6/13/13 13/9/9 18/17/17 17/18/18
f 17/18/18 20/19/19 19/20/20 4/15/15
f 21/21/21 20/19/19 17/18/18 18/17/17
f 3/16/16 4/15/15 19/20/20 22/22/22
f 33/23/23 36/24/24 24/25/25 32/26/26
f 32/26/26 27/27/27 23/28/28 30/29/29
f 34/30/30 35/31/31 36/24/24 33/23/23
f 29/32/32 31/33/33 34/30/30 33/23/23
f 29/32/32 33/23/23 32/26/26 30/29/29
f 37/34/34 28/35/35 35/31/31 34/30/30
f 31/33/33 38/36/36 37/34/34 34/30/30
f 38/36/36 25/37/37 26/38/38 37/34/34
f 28/35/35 39/39/39 40/40/40 35/31/31
f 39/39/39 26/38/38 41/41/41 42/42/42
f 43/43/43 40/40/40 39/39/39 42/42/42
f 25/37/37 44/44/44 41/41/41 26/38/38
f 16/14/14 3/16/16 25/37/37 38/36/36
f 4/15/15 15/12/12 37/34/34 26/38/38
f 10/2/2 5/7/7 27/27/27 32/26/26
f 5/7/7 1/6/6 23/28/28 27/27/27
f 15/12/12 6/13/13 28/35/35 37/34/34
f 2/3/3 10/2/2 32/26/26 24/25/25
f 8/5/5 7/10/10 29/32/32 30/29/29
f 1/6/6 8/5/5 30/29/29 23/28/28
f 7/10/10 9/11/11 31/33/33 29/32/32
f 13/9/9 14/4/4 36/24/24 35/31/31
f 9/11/11 16/14/14 38/36/36 31/33/33
f 14/4/4 2/3/3 24/25/25 36/24/24
f 18/17/17 13/9/9 35/31/31 40/40/40
f 6/13/13 17/18/18 39/39/39 28/35/35
f 17/18/18 4/15/15 26/38/38 39/39/39
f 19/20/20 20/19/19 42/42/42 41/41/41
f 21/21/21 18/17/17 40/40/40 43/43/43
f 20/19/19 21/21/21 43/43/43 42/42/42
f 22/22/22 19/20/20 41/41/41 44/44/44
f 3/16/16 22/22/22 44/44/44 25/37/37
