# Blender v3.4.1 OBJ File: 'Allprops1.blend'
# www.blender.org
mtllib IceCream.mtl
o Cube.001_Cube.006
v -0.012353 -0.005462 0.002964
v -0.012353 0.141903 0.002964
v -0.012353 -0.005462 -0.002964
v -0.012353 0.141903 -0.002964
v 0.012352 -0.005462 0.002964
v 0.012352 0.141903 0.002964
v 0.012352 -0.005462 -0.002964
v 0.012352 0.141903 -0.002964
v -0.054262 0.100107 0.019556
v -0.036298 0.316749 0.019556
v -0.054262 0.100107 -0.019556
v -0.036298 0.316749 -0.019556
v 0.054262 0.100107 0.019556
v 0.036298 0.316749 0.019556
v 0.054262 0.100107 -0.019556
v 0.036298 0.316749 -0.019556
vt 0.625597 0.832083
vt 0.626197 0.832083
vt 0.626197 0.832683
vt 0.625597 0.832683
vt 0.626197 0.833283
vt 0.625597 0.833283
vt 0.626197 0.833883
vt 0.625597 0.833883
vt 0.626197 0.834483
vt 0.625597 0.834483
vt 0.624997 0.833283
vt 0.624997 0.833883
vt 0.626797 0.833283
vt 0.626797 0.833883
vt 0.613564 0.831784
vt 0.614024 0.831784
vt 0.614024 0.832245
vt 0.613564 0.832245
vt 0.614024 0.832705
vt 0.613564 0.832705
vt 0.614024 0.833165
vt 0.613564 0.833165
vt 0.614024 0.833626
vt 0.613564 0.833626
vt 0.613104 0.832705
vt 0.613104 0.833165
vt 0.614485 0.832705
vt 0.614485 0.833165
vn -1.0000 0.0000 0.0000
vn 0.0000 0.0000 -1.0000
vn 1.0000 0.0000 0.0000
vn 0.0000 0.0000 1.0000
vn 0.0000 -1.0000 0.0000
vn 0.0000 1.0000 0.0000
vn -0.9966 0.0826 0.0000
vn 0.9966 0.0826 0.0000
usemtl Material.001
s off
f 1/1/1 2/2/1 4/3/1 3/4/1
f 3/4/2 4/3/2 8/5/2 7/6/2
f 7/6/3 8/5/3 6/7/3 5/8/3
f 5/8/4 6/7/4 2/9/4 1/10/4
f 3/11/5 7/6/5 5/8/5 1/12/5
f 8/5/6 4/13/6 2/14/6 6/7/6
f 9/15/7 10/16/7 12/17/7 11/18/7
f 11/18/2 12/17/2 16/19/2 15/20/2
f 15/20/8 16/19/8 14/21/8 13/22/8
f 13/22/4 14/21/4 10/23/4 9/24/4
f 11/25/5 15/20/5 13/22/5 9/26/5
f 16/19/6 12/27/6 10/28/6 14/21/6
