# Blender v3.4.1 OBJ File: 'Mansion.blend'
# www.blender.org
mtllib Mansion.mtl
o Cube
v 2.829411 5.658821 -2.829411
v 2.829411 0.000000 -2.829411
v 2.829411 5.658821 2.829411
v 2.829411 0.000000 2.829411
v 19.523781 11.317642 -2.829411
v 19.523781 0.000000 -2.829411
v 19.523781 11.317642 -11.317642
v 19.523781 0.000000 -11.317642
v 0.000000 5.658821 2.829411
v 0.000000 0.000000 2.829411
v 0.000000 5.658821 -2.829411
v 0.000000 11.317642 -2.829411
v 0.000000 11.317642 -11.317642
v 17.345846 -0.342017 -1.892414
v 17.345846 17.364510 -1.892414
v 17.345846 -0.342017 -12.002585
v 17.345846 17.364510 -12.002585
v 27.456017 -0.342017 -1.892414
v 27.456017 17.364510 -1.892414
v 27.456017 -0.342017 -12.002585
v 27.456017 17.364510 -12.002585
v 15.229180 15.993480 0.224265
v 15.229180 15.993480 -14.119252
v 29.572697 15.993480 0.224265
v 29.572697 15.993480 -14.119252
v 22.400826 24.409866 -6.947605
v 0.000000 -0.342017 -4.700575
v 0.000000 23.001707 -4.700575
v 0.000000 -0.342017 -14.810746
v 0.000000 23.001707 -14.810746
v 5.800412 -0.342017 -4.700575
v 5.800412 23.001707 -4.700575
v 5.800412 -0.342017 -14.810746
v 5.800412 23.001707 -14.810746
v 0.000000 25.727894 -6.605335
v 0.000000 25.727894 -12.905987
v 4.060721 25.727894 -6.605335
v 4.060721 25.727894 -12.905987
v 0.000000 27.102026 -7.772090
v 0.000000 27.102026 -11.739232
v 2.603120 27.102026 -7.772090
v 2.603120 27.102026 -11.739232
v 0.000000 27.102026 -9.451764
v 0.000000 27.102026 -10.059557
v 0.431372 27.102026 -9.451764
v 0.431372 27.102026 -10.059557
v 0.000000 30.471252 -9.451764
v 0.000000 30.471252 -10.059557
v 0.431372 30.471252 -9.451764
v 0.431372 30.471252 -10.059557
v -2.829411 5.658821 -2.829411
v -2.829411 0.000000 -2.829411
v -2.829411 5.658821 2.829411
v -2.829411 0.000000 2.829411
v -19.523781 11.317642 -2.829411
v -19.523781 0.000000 -2.829411
v -19.523781 11.317642 -11.317642
v -19.523781 0.000000 -11.317642
v -17.345846 -0.342017 -1.892414
v -17.345846 17.364510 -1.892414
v -17.345846 -0.342017 -12.002585
v -17.345846 17.364510 -12.002585
v -27.456017 -0.342017 -1.892414
v -27.456017 17.364510 -1.892414
v -27.456017 -0.342017 -12.002585
v -27.456017 17.364510 -12.002585
v -15.229180 15.993480 0.224265
v -15.229180 15.993480 -14.119252
v -29.572697 15.993480 0.224265
v -29.572697 15.993480 -14.119252
v -22.400826 24.409866 -6.947605
v -5.800412 -0.342017 -4.700575
v -5.800412 23.001707 -4.700575
v -5.800412 -0.342017 -14.810746
v -5.800412 23.001707 -14.810746
v -4.060721 25.727894 -6.605335
v -4.060721 25.727894 -12.905987
v -2.603120 27.102026 -7.772090
v -2.603120 27.102026 -11.739232
v -0.431372 27.102026 -9.451764
v -0.431372 27.102026 -10.059557
v -0.431372 30.471252 -9.451764
v -0.431372 30.471252 -10.059557
vt 0.209413 0.940903
vt 0.217441 0.940903
vt 0.263269 0.965879
vt 0.209413 0.956959
vt 0.215103 0.939825
vt 0.199068 0.937765
vt 0.199068 0.921432
vt 0.215103 0.923492
vt 0.217441 0.924848
vt 0.263269 0.933768
vt 0.261664 0.964040
vt 0.220507 0.956798
vt 0.219310 0.938503
vt 0.260467 0.945746
vt 0.233650 0.958307
vt 0.233650 0.933965
vt 0.252115 0.936444
vt 0.252115 0.960787
vt 0.214709 0.924130
vt 0.214709 0.940463
vt 0.206624 0.939736
vt 0.206624 0.923403
vt 0.198684 0.921362
vt 0.206851 0.921362
vt 0.198607 0.938393
vt 0.247178 0.926802
vt 0.247178 0.946205
vt 0.235965 0.944670
vt 0.235965 0.925267
vt 0.246409 0.945590
vt 0.246409 0.964993
vt 0.235530 0.963725
vt 0.235530 0.944322
vt 0.258718 0.926956
vt 0.258718 0.946277
vt 0.247305 0.944676
vt 0.247305 0.925354
vt 0.280314 0.952263
vt 0.280314 0.980620
vt 0.264123 0.975763
vt 0.264123 0.947407
vt 0.282252 0.985064
vt 0.277327 0.989017
vt 0.274598 0.983323
vt 0.245562 0.945686
vt 0.257925 0.945686
vt 0.257925 0.958049
vt 0.245562 0.958049
vt 0.281983 0.985599
vt 0.277259 0.989382
vt 0.274275 0.984118
vt 0.282215 0.985291
vt 0.277990 0.989623
vt 0.274383 0.984765
vt 0.276835 0.989255
vt 0.274401 0.983714
vt 0.281919 0.985973
vt 0.223692 0.940569
vt 0.223692 0.979398
vt 0.214044 0.979398
vt 0.214044 0.940569
vt 0.229751 0.939848
vt 0.229751 0.978513
vt 0.212934 0.978513
vt 0.212934 0.939848
vt 0.226676 0.942186
vt 0.226676 0.981014
vt 0.217319 0.978011
vt 0.217319 0.939182
vt 0.226583 0.983294
vt 0.216103 0.983294
vt 0.217319 0.982545
vt 0.223783 0.985549
vt 0.221358 0.987834
vt 0.217319 0.984831
vt 0.223692 0.983932
vt 0.216937 0.983932
vt 0.176692 0.991487
vt 0.172362 0.991487
vt 0.175975 0.988693
vt 0.176692 0.988693
vt 0.223692 0.986218
vt 0.219362 0.986218
vt 0.224642 0.985792
vt 0.218043 0.985792
vt 0.196583 0.947561
vt 0.197594 0.947561
vt 0.197594 0.953142
vt 0.196583 0.953142
vt 0.172362 0.984888
vt 0.176692 0.984888
vt 0.176692 0.987682
vt 0.175975 0.987682
vt 0.197594 0.953165
vt 0.198311 0.953165
vt 0.198311 0.954176
vt 0.197594 0.954176
vt 0.197594 0.947561
vt 0.198311 0.947561
vt 0.198311 0.953165
vt 0.197594 0.953165
vt 0.196583 0.953142
vt 0.197300 0.953142
vt 0.197300 0.958746
vt 0.196583 0.958746
vt 0.263269 0.965879
vt 0.217441 0.940903
vt 0.215103 0.939825
vt 0.215103 0.923492
vt 0.199068 0.921432
vt 0.199068 0.937765
vt 0.263269 0.933768
vt 0.217441 0.924848
vt 0.219310 0.938503
vt 0.220507 0.956798
vt 0.233650 0.958307
vt 0.252115 0.960787
vt 0.252115 0.936444
vt 0.233650 0.933965
vt 0.214709 0.924130
vt 0.214709 0.940463
vt 0.198684 0.921362
vt 0.198607 0.938393
vt 0.247178 0.926802
vt 0.235965 0.925267
vt 0.235965 0.944670
vt 0.247178 0.946205
vt 0.246409 0.945590
vt 0.235530 0.944322
vt 0.235530 0.963725
vt 0.246409 0.964993
vt 0.258718 0.926956
vt 0.247305 0.925354
vt 0.247305 0.944676
vt 0.258718 0.946277
vt 0.280314 0.952263
vt 0.264123 0.947407
vt 0.264123 0.975763
vt 0.280314 0.980620
vt 0.282252 0.985064
vt 0.274598 0.983323
vt 0.277327 0.989017
vt 0.245562 0.945686
vt 0.245562 0.958049
vt 0.257925 0.958049
vt 0.257925 0.945686
vt 0.281983 0.985599
vt 0.274275 0.984118
vt 0.277259 0.989382
vt 0.282215 0.985291
vt 0.274383 0.984765
vt 0.277990 0.989623
vt 0.276835 0.989255
vt 0.281919 0.985973
vt 0.274401 0.983714
vt 0.214044 0.940569
vt 0.214044 0.979398
vt 0.229751 0.939848
vt 0.212934 0.939848
vt 0.212934 0.978513
vt 0.229751 0.978513
vt 0.226676 0.942186
vt 0.226676 0.981014
vt 0.216103 0.983294
vt 0.226583 0.983294
vt 0.221358 0.987834
vt 0.223783 0.985549
vt 0.216937 0.983932
vt 0.175975 0.988693
vt 0.172362 0.991487
vt 0.219362 0.986218
vt 0.218043 0.985792
vt 0.224642 0.985792
vt 0.196583 0.947561
vt 0.196583 0.953142
vt 0.197594 0.953142
vt 0.197594 0.947561
vt 0.172362 0.984888
vt 0.175975 0.987682
vt 0.197594 0.953165
vt 0.197594 0.954176
vt 0.198311 0.953165
vt 0.198311 0.947561
vt 0.196583 0.953142
vt 0.196583 0.958746
vn 0.0000 0.0000 1.0000
vn 1.0000 0.0000 0.0000
vn 0.0000 1.0000 0.0000
vn -1.0000 0.0000 0.0000
vn 0.0000 0.0000 -1.0000
vn 0.7611 0.6486 0.0000
vn 0.0000 0.6486 0.7611
vn -0.7611 0.6486 0.0000
vn 0.0000 0.6486 -0.7611
vn 0.8430 0.5379 0.0000
vn 0.0000 0.6472 0.7623
vn 0.0000 0.5727 0.8197
vn 0.0000 0.5727 -0.8197
vn 0.0000 0.6472 -0.7623
vn 0.6860 0.7276 0.0000
vn -0.8430 0.5379 0.0000
vn -0.6860 0.7276 0.0000
usemtl Material
s off
f 11/1/1 1/2/1 5/3/1 12/4/1
f 2/5/2 1/6/2 3/7/2 4/8/2
f 1/2/1 2/9/1 6/10/1 5/3/1
f 12/11/3 5/12/3 7/13/3 13/14/3
f 5/15/2 6/16/2 8/17/2 7/18/2
f 4/19/1 3/20/1 9/21/1 10/22/1
f 1/23/3 11/24/3 9/21/3 3/25/3
f 14/26/4 15/27/4 17/28/4 16/29/4
f 16/30/5 17/31/5 21/32/5 20/33/5
f 20/34/2 21/35/2 19/36/2 18/37/2
f 18/38/1 19/39/1 15/40/1 14/41/1
f 25/42/6 26/43/6 24/44/6
f 21/45/3 17/46/3 15/47/3 19/48/3
f 24/49/7 26/50/7 22/51/7
f 22/52/8 26/53/8 23/54/8
f 26/55/9 25/56/9 23/57/9
f 29/58/5 30/59/5 34/60/5 33/61/5
f 33/62/2 34/63/2 32/64/2 31/65/2
f 31/66/1 32/67/1 28/68/1 27/69/1
f 32/64/10 34/63/10 38/70/10 37/71/10
f 35/72/11 37/73/11 41/74/11 39/75/11
f 28/68/12 32/67/12 37/73/12 35/72/12
f 34/60/13 30/59/13 36/76/13 38/77/13
f 39/78/3 41/79/3 45/80/3 43/81/3
f 38/77/14 36/76/14 40/82/14 42/83/14
f 37/71/15 38/70/15 42/84/15 41/85/15
f 45/86/2 46/87/2 50/88/2 49/89/2
f 42/90/3 40/91/3 44/92/3 46/93/3
f 41/79/3 42/90/3 46/93/3 45/80/3
f 50/94/3 48/95/3 47/96/3 49/97/3
f 43/98/1 45/99/1 49/100/1 47/101/1
f 46/102/5 44/103/5 48/104/5 50/105/5
f 11/1/1 12/4/1 55/106/1 51/107/1
f 52/108/4 54/109/4 53/110/4 51/111/4
f 51/107/1 55/106/1 56/112/1 52/113/1
f 12/11/3 13/14/3 57/114/3 55/115/3
f 55/116/4 57/117/4 58/118/4 56/119/4
f 54/120/1 10/22/1 9/21/1 53/121/1
f 51/122/3 53/123/3 9/21/3 11/24/3
f 59/124/2 61/125/2 62/126/2 60/127/2
f 61/128/5 65/129/5 66/130/5 62/131/5
f 65/132/4 63/133/4 64/134/4 66/135/4
f 63/136/1 59/137/1 60/138/1 64/139/1
f 70/140/8 69/141/8 71/142/8
f 66/143/3 64/144/3 60/145/3 62/146/3
f 69/147/7 67/148/7 71/149/7
f 67/150/6 68/151/6 71/152/6
f 71/153/9 68/154/9 70/155/9
f 29/58/5 74/156/5 75/157/5 30/59/5
f 74/158/4 72/159/4 73/160/4 75/161/4
f 72/162/1 27/69/1 28/68/1 73/163/1
f 73/160/16 76/164/16 77/165/16 75/161/16
f 35/72/11 39/75/11 78/166/11 76/167/11
f 28/68/12 35/72/12 76/167/12 73/163/12
f 75/157/13 77/168/13 36/76/13 30/59/13
f 39/78/3 43/81/3 80/169/3 78/170/3
f 77/168/14 79/171/14 40/82/14 36/76/14
f 76/164/17 78/172/17 79/173/17 77/165/17
f 80/174/4 82/175/4 83/176/4 81/177/4
f 79/178/3 81/179/3 44/92/3 40/91/3
f 78/170/3 80/169/3 81/179/3 79/178/3
f 83/180/3 82/181/3 47/96/3 48/95/3
f 43/98/1 47/101/1 82/182/1 80/183/1
f 81/184/5 83/185/5 48/104/5 44/103/5
