# Blender v3.4.1 OBJ File: 'Allprops1.blend'
# www.blender.org
mtllib Rock3.mtl
o Rock3_Cube.001
v -1.847230 -0.105103 0.160657
v -1.838280 0.210618 0.154870
v -1.770557 -0.091154 -0.096355
v -1.830462 0.296860 -0.258553
v -1.561510 -0.155302 0.137420
v -1.577566 0.173814 0.167527
v -1.511266 -0.163928 -0.126027
v -1.542496 0.253328 -0.176401
v -1.846773 -0.102105 0.036639
v -1.909494 0.027115 0.170620
v -1.829293 0.284943 -0.031911
v -1.825971 0.106725 -0.208670
v -1.641002 -0.125381 -0.150013
v -1.673583 0.356462 -0.235495
v -1.481735 0.030295 -0.193419
v -1.463041 -0.214591 0.054834
v -1.498600 0.181374 0.029060
v -1.489573 -0.002887 0.199236
v -1.722427 -0.131512 0.183579
v -1.721413 0.216291 0.183838
v -1.918204 0.072097 -0.041600
v -1.703896 0.083126 -0.277116
v -1.404189 -0.015790 0.008203
v -1.702351 0.001446 0.258923
v -1.618085 -0.197370 0.073215
v -1.676200 0.371189 -0.059780
vt 0.613462 0.902692
vt 0.624016 0.902692
vt 0.624016 0.913246
vt 0.613462 0.913246
vt 0.634569 0.902692
vt 0.634569 0.913246
vt 0.634569 0.923799
vt 0.624016 0.923799
vt 0.613462 0.923799
vt 0.624016 0.934353
vt 0.613462 0.934353
vt 0.634569 0.934353
vt 0.634569 0.944906
vt 0.624016 0.944906
vt 0.613462 0.944906
vt 0.624016 0.955460
vt 0.613462 0.955460
vt 0.634569 0.955460
vt 0.634569 0.966013
vt 0.624016 0.966013
vt 0.613462 0.966013
vt 0.624016 0.976567
vt 0.613462 0.976567
vt 0.634569 0.976567
vt 0.634569 0.987121
vt 0.624016 0.987121
vt 0.613462 0.987121
vt 0.592355 0.944906
vt 0.602909 0.944906
vt 0.602909 0.955460
vt 0.592355 0.955460
vt 0.602909 0.966013
vt 0.592355 0.966013
vt 0.645123 0.944906
vt 0.645123 0.955460
vt 0.655676 0.944906
vt 0.655676 0.955460
vt 0.655676 0.966013
vt 0.645123 0.966013
vn -0.6124 -0.6565 0.4405
vn -0.8404 -0.0531 0.5394
vn -0.9765 -0.0898 -0.1957
vn -0.6747 -0.7192 -0.1660
vn -0.6109 0.5588 0.5608
vn -0.7160 0.6881 0.1172
vn -0.6341 0.4539 -0.6260
vn -0.7007 -0.1931 -0.6868
vn -0.5220 -0.7039 -0.4817
vn -0.0324 -0.2213 -0.9747
vn -0.1747 -0.7408 -0.6487
vn 0.1307 0.7857 -0.6047
vn 0.7443 0.4872 -0.4567
vn 0.7159 -0.0600 -0.6956
vn 0.3876 -0.7202 -0.5754
vn 0.9973 0.0021 0.0734
vn 0.5748 -0.8078 0.1310
vn 0.7933 0.5721 0.2085
vn 0.4997 0.5429 0.6750
vn 0.6270 0.0034 0.7790
vn 0.3094 -0.6359 0.7070
vn -0.0336 -0.0747 0.9966
vn -0.1799 -0.7400 0.6481
vn -0.0056 0.6295 0.7770
vn -0.1780 -0.9765 0.1213
vn 0.1422 0.9685 0.2045
usemtl Material
s 1
f 1/1/1 10/2/2 21/3/3 9/4/4
f 10/2/2 2/5/5 11/6/6 21/3/3
f 21/3/3 11/6/6 4/7/7 12/8/8
f 9/4/4 21/3/3 12/8/8 3/9/9
f 3/9/9 12/8/8 22/10/10 13/11/11
f 12/8/8 4/7/7 14/12/12 22/10/10
f 22/10/10 14/12/12 8/13/13 15/14/14
f 13/11/11 22/10/10 15/14/14 7/15/15
f 7/15/15 15/14/14 23/16/16 16/17/17
f 15/14/14 8/13/13 17/18/18 23/16/16
f 23/16/16 17/18/18 6/19/19 18/20/20
f 16/17/17 23/16/16 18/20/20 5/21/21
f 5/21/21 18/20/20 24/22/22 19/23/23
f 18/20/20 6/19/19 20/24/24 24/22/22
f 24/22/22 20/24/24 2/25/5 10/26/2
f 19/23/23 24/22/22 10/26/2 1/27/1
f 3/28/9 13/29/11 25/30/25 9/31/4
f 13/29/11 7/15/15 16/17/17 25/30/25
f 25/30/25 16/17/17 5/21/21 19/32/23
f 9/31/4 25/30/25 19/32/23 1/33/1
f 8/13/13 14/34/12 26/35/26 17/18/18
f 14/34/12 4/36/7 11/37/6 26/35/26
f 26/35/26 11/37/6 2/38/5 20/39/24
f 17/18/18 26/35/26 20/39/24 6/19/19
