# Blender v3.4.1 OBJ File: 'Allprops1.blend'
# www.blender.org
mtllib Snowflake.mtl
o Snowflake_Cylinder
v 0.000000 -0.098704 0.000000
v 0.000000 0.006391 0.000000
v 0.000000 -0.098704 -1.000000
v 0.000000 0.006391 -1.000000
v 0.707107 -0.098704 -0.707107
v 0.707107 0.006391 -0.707107
v 1.000000 -0.098704 0.000000
v 1.000000 0.006391 0.000000
v 0.707107 -0.098704 0.707107
v 0.707107 0.006391 0.707107
v 0.000000 -0.098704 1.000000
v 0.000000 0.006391 1.000000
v 0.618000 -0.046157 -1.491983
v 1.491983 -0.046157 -0.618000
v 1.491983 -0.046157 0.618000
v 0.618000 -0.046157 1.491983
v 0.020970 -0.022255 -1.016694
v 0.302076 -0.046157 -1.240479
v 0.020970 -0.070059 -1.016694
v 0.704083 -0.070059 -0.733739
v 0.663552 -0.046157 -1.090751
v 0.704083 -0.022255 -0.733739
v 0.733739 -0.022255 -0.704083
v 1.090751 -0.046157 -0.663552
v 0.733739 -0.070059 -0.704083
v 1.016694 -0.070059 -0.020970
v 1.240479 -0.046157 -0.302076
v 1.016694 -0.022255 -0.020970
v 1.016694 -0.022255 0.020970
v 1.240479 -0.046157 0.302076
v 1.016694 -0.070059 0.020970
v 0.733739 -0.070059 0.704083
v 1.090751 -0.046157 0.663552
v 0.733739 -0.022255 0.704083
v 0.704083 -0.022255 0.733739
v 0.663552 -0.046157 1.090751
v 0.704083 -0.070059 0.733739
v 0.020970 -0.070059 1.016694
v 0.302076 -0.046157 1.240479
v 0.020970 -0.022255 1.016694
v 0.066824 -0.046157 -1.329673
v 0.127593 -0.046157 1.367653
v 0.912960 -0.046157 -1.065040
v 1.049847 -0.046157 -0.897768
v 1.401836 -0.046157 -0.116199
v 1.401836 -0.046157 0.101007
v 1.087828 -0.046157 0.916758
v 0.924354 -0.046157 1.053645
v -0.707107 -0.098704 -0.707107
v -0.707107 0.006391 -0.707107
v -1.000000 -0.098704 0.000000
v -1.000000 0.006391 0.000000
v -0.707107 -0.098704 0.707107
v -0.707107 0.006391 0.707107
v -0.618000 -0.046157 -1.491983
v -1.491983 -0.046157 -0.618000
v -1.491983 -0.046157 0.618000
v -0.618000 -0.046157 1.491983
v -0.020970 -0.022255 -1.016694
v -0.302076 -0.046157 -1.240479
v -0.020970 -0.070059 -1.016694
v -0.704083 -0.070059 -0.733739
v -0.663552 -0.046157 -1.090751
v -0.704083 -0.022255 -0.733739
v -0.733739 -0.022255 -0.704083
v -1.090751 -0.046157 -0.663552
v -0.733739 -0.070059 -0.704083
v -1.016694 -0.070059 -0.020970
v -1.240479 -0.046157 -0.302076
v -1.016694 -0.022255 -0.020970
v -1.016694 -0.022255 0.020970
v -1.240479 -0.046157 0.302076
v -1.016694 -0.070059 0.020970
v -0.733739 -0.070059 0.704083
v -1.090751 -0.046157 0.663552
v -0.733739 -0.022255 0.704083
v -0.704083 -0.022255 0.733739
v -0.663552 -0.046157 1.090751
v -0.704083 -0.070059 0.733739
v -0.020970 -0.070059 1.016694
v -0.302076 -0.046157 1.240479
v -0.020970 -0.022255 1.016694
v -0.066824 -0.046157 -1.329673
v -0.127593 -0.046157 1.367653
v -0.912960 -0.046157 -1.065040
v -1.049847 -0.046157 -0.897768
v -1.401836 -0.046157 -0.116199
v -1.401836 -0.046157 0.101007
v -1.087828 -0.046157 0.916758
v -0.924354 -0.046157 1.053645
vt 0.434132 0.867359
vt 0.434132 0.878499
vt 0.442009 0.875236
vt 0.434132 0.867359
vt 0.442009 0.875236
vt 0.434132 0.878499
vt 0.445272 0.867359
vt 0.445272 0.867359
vt 0.442009 0.859482
vt 0.442009 0.859482
vt 0.434132 0.856219
vt 0.434132 0.856219
vt 0.447951 0.863994
vt 0.445458 0.867125
vt 0.449749 0.866234
vt 0.441017 0.883980
vt 0.445458 0.867593
vt 0.447951 0.870724
vt 0.449749 0.868653
vt 0.445458 0.867125
vt 0.450753 0.874243
vt 0.446283 0.859967
vt 0.442306 0.859515
vt 0.446251 0.857146
vt 0.450753 0.860474
vt 0.442306 0.859515
vt 0.437497 0.881178
vt 0.434366 0.878685
vt 0.434877 0.882172
vt 0.441017 0.850738
vt 0.441524 0.855208
vt 0.441976 0.859185
vt 0.444430 0.855621
vt 0.434366 0.878685
vt 0.441524 0.879510
vt 0.441976 0.875533
vt 0.441976 0.875533
vt 0.446283 0.874751
vt 0.442306 0.875202
vt 0.442306 0.875202
vt 0.445458 0.867593
vt 0.441976 0.859185
vt 0.437497 0.853540
vt 0.434366 0.856033
vt 0.434366 0.856033
vt 0.445828 0.877360
vt 0.435554 0.852123
vt 0.444303 0.879224
vt 0.426255 0.875236
vt 0.426255 0.875236
vt 0.422992 0.867359
vt 0.422992 0.867359
vt 0.426255 0.859482
vt 0.426255 0.859482
vt 0.420313 0.863994
vt 0.418516 0.866234
vt 0.422806 0.867125
vt 0.427248 0.883980
vt 0.422806 0.867593
vt 0.418516 0.868653
vt 0.420313 0.870724
vt 0.422806 0.867125
vt 0.417511 0.874243
vt 0.421981 0.859967
vt 0.422014 0.857146
vt 0.425958 0.859515
vt 0.417511 0.860474
vt 0.425958 0.859515
vt 0.430767 0.881178
vt 0.433388 0.882172
vt 0.433899 0.878685
vt 0.427248 0.850738
vt 0.426740 0.855208
vt 0.423835 0.855621
vt 0.426289 0.859185
vt 0.433899 0.878685
vt 0.426289 0.875533
vt 0.426740 0.879510
vt 0.426289 0.875533
vt 0.425958 0.875202
vt 0.421981 0.874751
vt 0.425958 0.875202
vt 0.422806 0.867593
vt 0.426289 0.859185
vt 0.433899 0.856033
vt 0.430767 0.853540
vt 0.433899 0.856033
vt 0.422437 0.877360
vt 0.432711 0.852123
vt 0.423962 0.879224
vn 0.0000 -1.0000 0.0000
vn 0.0000 1.0000 0.0000
vn 0.0531 -0.9977 0.0426
vn 0.0290 0.9971 -0.0701
vn 0.0510 -0.9977 -0.0443
vn 0.0290 -0.9971 -0.0701
vn 0.2035 0.0000 -0.9791
vn 0.0701 0.9971 -0.0290
vn 0.0669 0.9978 0.0008
vn 0.0701 -0.9971 -0.0290
vn 0.0531 0.9977 0.0426
vn 0.0701 0.9971 0.0290
vn -0.5149 0.0000 0.8573
vn 0.0701 -0.9971 0.0290
vn 0.0273 -0.9970 -0.0721
vn 0.0290 0.9971 0.0701
vn 0.0097 -0.9976 0.0679
vn 0.0290 -0.9971 0.0701
vn -0.6228 -0.0000 -0.7824
vn 0.9936 0.0000 -0.1128
vn 0.1128 0.0000 -0.9936
vn 0.7824 -0.0000 0.6228
vn 0.7824 0.0000 -0.6228
vn 0.1128 0.0000 0.9936
vn 0.9936 -0.0000 0.1128
vn -0.6228 -0.0000 0.7824
vn -0.9894 0.0000 -0.1450
vn 0.2400 0.0000 0.9708
vn 0.0681 0.9976 -0.0119
vn 0.0405 -0.9976 0.0556
vn 0.0510 0.9977 -0.0443
vn -0.9568 0.0000 0.2907
vn -0.5224 0.0000 -0.8527
vn 0.0405 0.9976 0.0556
vn 0.0070 -0.9977 -0.0676
vn 0.0097 0.9976 0.0679
vn 0.0681 -0.9976 -0.0119
vn 0.8459 0.0000 0.5333
vn 0.8236 0.0000 -0.5671
vn 0.0273 0.9970 -0.0721
vn 0.0669 -0.9978 0.0008
vn 0.0070 0.9977 -0.0676
vn -0.0531 -0.9977 0.0426
vn -0.0290 0.9971 -0.0701
vn -0.0510 -0.9977 -0.0443
vn -0.0290 -0.9971 -0.0701
vn -0.2035 0.0000 -0.9791
vn -0.0701 0.9971 -0.0290
vn -0.0669 0.9978 0.0008
vn -0.0701 -0.9971 -0.0290
vn -0.0531 0.9977 0.0426
vn -0.0701 0.9971 0.0290
vn 0.5149 0.0000 0.8573
vn -0.0701 -0.9971 0.0290
vn -0.0273 -0.9970 -0.0721
vn -0.0290 0.9971 0.0701
vn -0.0097 -0.9976 0.0679
vn -0.0290 -0.9971 0.0701
vn 0.6228 -0.0000 -0.7824
vn -0.9936 0.0000 -0.1128
vn -0.1128 0.0000 -0.9936
vn -0.7824 -0.0000 0.6228
vn -0.7824 0.0000 -0.6228
vn -0.1128 0.0000 0.9936
vn -0.9936 0.0000 0.1128
vn 0.6228 -0.0000 0.7824
vn 0.9894 0.0000 -0.1450
vn -0.2400 0.0000 0.9708
vn -0.0681 0.9976 -0.0119
vn -0.0405 -0.9976 0.0556
vn -0.0510 0.9977 -0.0443
vn 0.9568 0.0000 0.2907
vn 0.5224 0.0000 -0.8527
vn -0.0405 0.9976 0.0556
vn -0.0070 -0.9977 -0.0676
vn -0.0097 0.9976 0.0679
vn -0.0681 -0.9976 -0.0119
vn -0.8459 0.0000 0.5333
vn -0.8236 0.0000 -0.5671
vn -0.0273 0.9970 -0.0721
vn -0.0669 -0.9978 0.0008
vn -0.0070 0.9977 -0.0676
usemtl Material
s off
f 1/1/1 3/2/1 5/3/1
f 2/4/2 6/5/2 4/6/2
f 1/1/1 5/3/1 7/7/1
f 2/4/2 8/8/2 6/5/2
f 1/1/1 7/7/1 9/9/1
f 2/4/2 10/10/2 8/8/2
f 1/1/1 9/9/1 11/11/1
f 2/4/2 12/12/2 10/10/2
f 30/13/3 31/14/3 46/15/3
f 6/5/4 13/16/4 4/6/4
f 26/17/5 27/18/5 45/19/5
f 3/2/6 13/16/6 5/3/6
f 31/14/7 29/20/7 46/15/7
f 8/8/8 14/21/8 6/5/8
f 33/22/9 34/23/9 47/24/9
f 5/3/10 14/21/10 7/7/10
f 29/20/11 30/13/11 46/15/11
f 10/10/12 15/25/12 8/8/12
f 34/23/13 32/26/13 47/24/13
f 7/7/14 15/25/14 9/9/14
f 18/27/15 19/28/15 41/29/15
f 12/12/16 16/30/16 10/10/16
f 36/31/17 37/32/17 48/33/17
f 9/9/18 16/30/18 11/11/18
f 4/6/19 13/16/19 18/27/19 17/34/19
f 13/16/19 3/2/19 19/28/19 18/27/19
f 3/2/19 4/6/19 17/34/19 19/28/19
f 5/3/20 13/16/20 21/35/20 20/36/20
f 13/16/20 6/5/20 22/37/20 21/35/20
f 6/5/20 5/3/20 20/36/20 22/37/20
f 6/5/21 14/21/21 24/38/21 23/39/21
f 14/21/21 5/3/21 25/40/21 24/38/21
f 5/3/21 6/5/21 23/39/21 25/40/21
f 7/7/22 14/21/22 27/18/22 26/17/22
f 14/21/22 8/8/22 28/41/22 27/18/22
f 8/8/22 7/7/22 26/17/22 28/41/22
f 8/8/23 15/25/23 30/13/23 29/20/23
f 15/25/23 7/7/23 31/14/23 30/13/23
f 7/7/23 8/8/23 29/20/23 31/14/23
f 9/9/24 15/25/24 33/22/24 32/26/24
f 15/25/24 10/10/24 34/23/24 33/22/24
f 10/10/24 9/9/24 32/26/24 34/23/24
f 10/10/25 16/30/25 36/31/25 35/42/25
f 16/30/25 9/9/25 37/32/25 36/31/25
f 9/9/25 10/10/25 35/42/25 37/32/25
f 11/11/26 16/30/26 39/43/26 38/44/26
f 16/30/26 12/12/26 40/45/26 39/43/26
f 12/12/26 11/11/26 38/44/26 40/45/26
f 19/28/27 17/34/27 41/29/27
f 28/41/28 26/17/28 45/19/28
f 23/39/29 24/38/29 44/46/29
f 38/44/30 39/43/30 42/47/30
f 27/18/31 28/41/31 45/19/31
f 40/45/32 38/44/32 42/47/32
f 25/40/33 23/39/33 44/46/33
f 39/43/34 40/45/34 42/47/34
f 20/36/35 21/35/35 43/48/35
f 35/42/36 36/31/36 48/33/36
f 24/38/37 25/40/37 44/46/37
f 22/37/38 20/36/38 43/48/38
f 37/32/39 35/42/39 48/33/39
f 17/34/40 18/27/40 41/29/40
f 32/26/41 33/22/41 47/24/41
f 21/35/42 22/37/42 43/48/42
f 1/1/1 49/49/1 3/2/1
f 2/4/2 4/6/2 50/50/2
f 1/1/1 51/51/1 49/49/1
f 2/4/2 50/50/2 52/52/2
f 1/1/1 53/53/1 51/51/1
f 2/4/2 52/52/2 54/54/2
f 1/1/1 11/11/1 53/53/1
f 2/4/2 54/54/2 12/12/2
f 72/55/43 88/56/43 73/57/43
f 50/50/44 4/6/44 55/58/44
f 68/59/45 87/60/45 69/61/45
f 3/2/46 49/49/46 55/58/46
f 73/57/47 88/56/47 71/62/47
f 52/52/48 50/50/48 56/63/48
f 75/64/49 89/65/49 76/66/49
f 49/49/50 51/51/50 56/63/50
f 71/62/51 88/56/51 72/55/51
f 54/54/52 52/52/52 57/67/52
f 76/66/53 89/65/53 74/68/53
f 51/51/54 53/53/54 57/67/54
f 60/69/55 83/70/55 61/71/55
f 12/12/56 54/54/56 58/72/56
f 78/73/57 90/74/57 79/75/57
f 53/53/58 11/11/58 58/72/58
f 4/6/59 59/76/59 60/69/59 55/58/59
f 55/58/59 60/69/59 61/71/59 3/2/59
f 3/2/59 61/71/59 59/76/59 4/6/59
f 49/49/60 62/77/60 63/78/60 55/58/60
f 55/58/60 63/78/60 64/79/60 50/50/60
f 50/50/60 64/79/60 62/77/60 49/49/60
f 50/50/61 65/80/61 66/81/61 56/63/61
f 56/63/61 66/81/61 67/82/61 49/49/61
f 49/49/61 67/82/61 65/80/61 50/50/61
f 51/51/62 68/59/62 69/61/62 56/63/62
f 56/63/62 69/61/62 70/83/62 52/52/62
f 52/52/62 70/83/62 68/59/62 51/51/62
f 52/52/63 71/62/63 72/55/63 57/67/63
f 57/67/63 72/55/63 73/57/63 51/51/63
f 51/51/63 73/57/63 71/62/63 52/52/63
f 53/53/64 74/68/64 75/64/64 57/67/64
f 57/67/64 75/64/64 76/66/64 54/54/64
f 54/54/64 76/66/64 74/68/64 53/53/64
f 54/54/65 77/84/65 78/73/65 58/72/65
f 58/72/65 78/73/65 79/75/65 53/53/65
f 53/53/65 79/75/65 77/84/65 54/54/65
f 11/11/66 80/85/66 81/86/66 58/72/66
f 58/72/66 81/86/66 82/87/66 12/12/66
f 12/12/66 82/87/66 80/85/66 11/11/66
f 61/71/67 83/70/67 59/76/67
f 70/83/68 87/60/68 68/59/68
f 65/80/69 86/88/69 66/81/69
f 80/85/70 84/89/70 81/86/70
f 69/61/71 87/60/71 70/83/71
f 82/87/72 84/89/72 80/85/72
f 67/82/73 86/88/73 65/80/73
f 81/86/74 84/89/74 82/87/74
f 62/77/75 85/90/75 63/78/75
f 77/84/76 90/74/76 78/73/76
f 66/81/77 86/88/77 67/82/77
f 64/79/78 85/90/78 62/77/78
f 79/75/79 90/74/79 77/84/79
f 59/76/80 83/70/80 60/69/80
f 74/68/81 89/65/81 75/64/81
f 63/78/82 85/90/82 64/79/82
